# Blender 3.5.1
# www.blender.org
mtllib water_corner_alt_tile.mtl
o tile
v 0.500000 -1.000000 0.500000
v 0.500000 -1.000000 -0.500000
v -0.500000 -1.000000 0.500000
v -0.401983 0.000000 -0.495185
v -0.500000 -1.000000 -0.500000
v -0.304910 0.000000 -0.480785
v -0.209715 0.000000 -0.456940
v -0.117317 0.000000 -0.423880
v 0.500000 -0.600000 -0.500000
v 0.500000 -0.600000 0.500000
v -0.028603 0.000000 -0.381921
v 0.055570 0.000000 -0.331470
v 0.134393 0.000000 -0.273011
v 0.207107 0.000000 -0.207107
v 0.273010 0.000000 -0.134393
v 0.331470 0.000000 -0.055570
v 0.381921 -0.000000 0.028603
v 0.423880 -0.000000 0.117316
v 0.456940 -0.000000 0.209715
v 0.480785 -0.000000 0.304910
v 0.495185 -0.000000 0.401983
v 0.500000 -0.000000 0.500000
v -0.500000 -0.000000 0.500000
v -0.500000 0.000000 -0.500000
v -0.499999 -0.600000 -0.500000
v -0.209715 -0.600000 -0.456940
v -0.304910 -0.600000 -0.480785
v -0.401983 -0.600000 -0.495185
v -0.028603 -0.600000 -0.381921
v 0.134393 -0.600000 -0.273010
v 0.055570 -0.600000 -0.331470
v -0.117317 -0.600000 -0.423880
v 0.273010 -0.600000 -0.134393
v 0.423880 -0.600000 0.117317
v 0.381921 -0.600000 0.028603
v 0.331470 -0.600000 -0.055570
v 0.480785 -0.600000 0.304910
v 0.500000 -0.600000 0.500000
v 0.500000 -0.600000 0.500000
v 0.456940 -0.600000 0.209715
v 0.495185 -0.600000 0.401983
v 0.207107 -0.600000 -0.207107
v 0.500000 -0.600000 0.500000
v 0.500000 -0.600000 0.500000
v -0.499999 -0.600000 -0.500000
v 0.500000 -0.600000 0.500000
vn -0.0000 -1.0000 -0.0000
vn 0.9890 -0.0000 -0.1477
vn 0.9988 -0.0000 -0.0491
vn -0.0000 -0.0000 1.0000
vn -0.0490 0.9988 -0.0024
vn -0.0000 1.0000 -0.0000
vn 0.0024 0.9988 0.0490
vn -0.0000 -0.0000 -0.0000
vn 0.0491 -0.0000 -0.9988
vn 0.1477 -0.0000 -0.9890
vn 0.1951 -0.0000 -0.9808
vn 0.2903 -0.0000 -0.9569
vn 0.3827 -0.0000 -0.9239
vn 0.4714 -0.0000 -0.8819
vn 0.5556 -0.0000 -0.8315
vn 0.6344 -0.0000 -0.7730
vn 0.7071 -0.0000 -0.7071
vn 0.7730 -0.0000 -0.6344
vn 0.8315 -0.0000 -0.5556
vn 0.8819 -0.0000 -0.4714
vn 0.9239 -0.0000 -0.3827
vn 0.9569 -0.0000 -0.2903
vn 0.9808 -0.0000 -0.1951
vn -0.0000 -0.0000 -1.0000
vn -1.0000 -0.0000 -0.0000
vn 1.0000 -0.0000 -0.0000
vt 19.685040 19.685040
vt 19.685040 -19.685040
vt -19.685040 19.685040
vt 0.984375 0.500000
vt -19.685040 -19.685040
vt 0.968750 0.500000
vt 0.953125 0.500000
vt 0.937500 0.500000
vt -19.685040 -19.685040
vt -19.685040 19.685040
vt -19.685040 7.874016
vt 19.685040 7.874016
vt 0.921875 0.500000
vt 0.906250 0.500000
vt 0.890625 0.500000
vt 0.875000 0.500000
vt 0.859375 0.500000
vt 0.843750 0.500000
vt 0.828125 0.500000
vt 0.812500 0.500000
vt 0.796875 0.500000
vt 0.781250 0.500000
vt 0.765625 0.500000
vt 0.000000 0.000000
vt 0.000000 0.000000
vt 0.000000 0.000000
vt 19.685017 -19.685040
vt 8.256510 -17.989779
vt 0.953125 0.650000
vt 12.004316 -18.928555
vt 0.968750 0.650000
vt 15.826097 -19.495462
vt 0.984375 0.650000
vt 1.126112 -15.036270
vt 0.921875 0.650000
vt -5.291077 -10.748444
vt 0.890625 0.650000
vt -2.187804 -13.049987
vt 0.906250 0.650000
vt 4.618762 -16.688171
vt 0.937500 0.650000
vt -10.748442 -5.291078
vt 0.859375 0.650000
vt -16.688169 4.618759
vt 0.812500 0.650000
vt -15.036269 1.126111
vt 0.828125 0.650000
vt -13.049984 -2.187806
vt 0.843750 0.650000
vt -18.928553 12.004315
vt 0.781250 0.650000
vt -19.685040 7.874016
vt -19.685040 19.685040
vt -19.685040 19.685040
vt -17.989779 8.256508
vt 0.796875 0.650000
vt -19.495462 15.826094
vt 0.765625 0.650000
vt -8.153810 -8.153811
vt 0.875000 0.650000
vt -19.685040 19.685040
vt 19.685040 7.874016
vt -19.685040 7.874016
vt 0.000000 0.000000
vt 0.000000 0.000000
vt 19.685040 7.874016
s 0
usemtl foliage
f 3/3/1 2/2/1 1/1/1
f 2/2/1 3/3/1 5/5/1
f 3/3/4 1/1/4 22/24/4 23/25/4
f 9/9/6 25/27/6 28/32/6 27/30/6 26/28/6 32/40/6 29/34/6 31/38/6 30/36/6 42/59/6 33/42/6 36/48/6 35/46/6 34/44/6 40/55/6 37/50/6 41/57/6 38/53/6
f 38/53/8 39/54/8 10/10/8
f 43/61/4 10/10/4 39/54/4
f 38/52/8 10/11/8 44/63/8
f 43/62/4 46/66/4 10/12/4
f 2/2/24 5/5/24 24/26/24 25/27/24 9/9/24
f 24/26/25 5/5/25 3/3/25 23/25/25
f 1/1/26 2/2/26 9/9/26 38/53/26
s 1
usemtl 
f 21/23/2 22/24/3 46/65/3 41/58/2
s 0
f 4/4/5 24/26/6 23/25/6 22/24/6 21/23/7 20/22/6 19/21/6 18/20/6 17/19/6 16/18/6 15/17/6 14/16/6 13/15/6 12/14/6 11/13/6 8/8/6 7/7/6 6/6/6
s 1
f 24/26/9 4/4/10 28/33/10 45/64/9
f 28/33/10 4/4/10 6/6/11 27/31/11
f 27/31/11 6/6/11 7/7/12 26/29/12
f 26/29/12 7/7/12 8/8/13 32/41/13
f 32/41/13 8/8/13 11/13/14 29/35/14
f 29/35/14 11/13/14 12/14/15 31/39/15
f 31/39/15 12/14/15 13/15/16 30/37/16
f 30/37/16 13/15/16 14/16/17 42/60/17
f 14/16/17 15/17/18 33/43/18 42/60/17
f 15/17/18 16/18/19 36/49/19 33/43/18
f 16/18/19 17/19/20 35/47/20 36/49/19
f 17/19/20 18/20/21 34/45/21 35/47/20
f 18/20/21 19/21/22 40/56/22 34/45/21
f 19/21/22 20/22/23 37/51/23 40/56/22
f 20/22/23 21/23/2 41/58/2 37/51/23
l 25 45
