# Blender 3.5.1
# www.blender.org
mtllib water_tile.mtl
o tile
v 0.500000 -1.000000 0.500000
v 0.500000 -1.000000 -0.500000
v -0.500000 -1.000000 0.500000
v -0.500000 -1.000000 -0.500000
v 0.500000 -0.600000 -0.500000
v -0.500000 -0.600000 0.500000
v -0.500000 -0.600000 -0.500000
v -0.499999 -0.600000 -0.500000
v 0.500000 -0.600000 0.500000
v 0.500000 -0.600000 0.500000
vn -0.0000 -1.0000 -0.0000
vn 1.0000 -0.0000 -0.0000
vn -0.0000 -0.0000 -1.0000
vn -0.0000 1.0000 -0.0000
vn -1.0000 -0.0000 -0.0000
vn -0.0000 -0.0000 1.0000
vt 19.685040 19.685040
vt 19.685040 -19.685040
vt -19.685040 19.685040
vt -19.685040 -19.685040
vt 0.000000 0.000000
vt 0.000000 0.000000
vt 0.000000 0.000000
vt 0.000000 0.000000
vt 0.000000 0.000000
s 0
usemtl foliage
f 3/3/1 2/2/1 1/1/1
f 2/2/1 3/3/1 4/4/1
f 1/1/2 2/2/2 5/5/2 10/9/2
f 4/4/3 8/8/3 5/5/3 2/2/3
f 10/9/4 5/5/4 8/8/4 6/6/4
f 7/7/5 4/4/5 3/3/5 6/6/5
f 3/3/6 1/1/6 10/9/6 6/6/6
l 7 8
