# Blender 3.5.1
# www.blender.org
o Cube
v 0.500000 -1.000000 0.500000
v -0.000000 -0.500000 -0.500000
v 0.500000 0.000000 0.500000
v -0.500000 -1.000000 0.500000
v 0.500000 -1.000000 -0.500000
v -0.500000 -1.000000 -0.500000
v -0.500000 0.000000 -0.500000
v 0.500000 -0.500000 -0.000000
v 0.450991 -0.500000 -0.002408
v 0.402455 -0.500000 -0.009607
v 0.354858 -0.500000 -0.021530
v 0.308658 -0.500000 -0.038060
v 0.264302 -0.500000 -0.059039
v 0.222215 -0.500000 -0.084265
v 0.182803 -0.500000 -0.113495
v 0.146447 -0.500000 -0.146447
v 0.113495 -0.500000 -0.182803
v 0.084265 -0.500000 -0.222215
v 0.059039 -0.500000 -0.264302
v 0.038060 -0.500000 -0.308658
v 0.021530 -0.500000 -0.354858
v 0.009607 -0.500000 -0.402455
v 0.002408 -0.500000 -0.450991
v -0.000000 0.000000 -0.500000
v 0.500000 -0.500000 -0.500000
v 0.500000 0.000000 -0.000000
v 0.450991 0.000000 -0.002408
v 0.354858 0.000000 -0.021530
v 0.402455 0.000000 -0.009607
v 0.182803 0.000000 -0.113495
v 0.308658 0.000000 -0.038060
v 0.264302 0.000000 -0.059039
v 0.222215 0.000000 -0.084265
v 0.146447 0.000000 -0.146447
v 0.113495 0.000000 -0.182803
v 0.002408 0.000000 -0.450991
v 0.009607 0.000000 -0.402455
v 0.021530 0.000000 -0.354858
v 0.084265 0.000000 -0.222215
v 0.059039 0.000000 -0.264302
v 0.038060 0.000000 -0.308658
v -0.500000 -0.500000 0.000000
v -0.450991 -0.500000 0.002408
v -0.402455 -0.500000 0.009607
v -0.354858 -0.500000 0.021530
v -0.308658 -0.500000 0.038060
v -0.264302 -0.500000 0.059039
v -0.222215 -0.500000 0.084265
v -0.182803 -0.500000 0.113495
v -0.146447 -0.500000 0.146447
v -0.113495 -0.500000 0.182803
v -0.084265 -0.500000 0.222215
v -0.059039 -0.500000 0.264302
v -0.038060 -0.500000 0.308658
v -0.021530 -0.500000 0.354858
v -0.009607 -0.500000 0.402455
v -0.002408 -0.500000 0.450991
v 0.000000 -0.500000 0.500000
v 0.000000 0.000000 0.500000
v -0.500000 -0.500000 0.500000
v -0.500000 0.000000 0.000000
v -0.021530 0.000000 0.354858
v -0.009607 0.000000 0.402455
v -0.002408 0.000000 0.450991
v -0.113495 0.000000 0.182803
v -0.084265 0.000000 0.222215
v -0.059039 0.000000 0.264302
v -0.038060 0.000000 0.308658
v -0.182803 0.000000 0.113495
v -0.354858 0.000000 0.021530
v -0.450991 0.000000 0.002408
v -0.402455 0.000000 0.009607
v -0.146447 0.000000 0.146447
v -0.222215 0.000000 0.084265
v -0.264302 0.000000 0.059039
v -0.308658 0.000000 0.038060
vn -0.0000 -0.0000 1.0000
vn -1.0000 -0.0000 -0.0000
vn -0.0000 -0.0000 -1.0000
vn 1.0000 -0.0000 -0.0000
vn -0.0000 -1.0000 -0.0000
vn -0.0000 1.0000 -0.0000
vn 0.9097 0.2890 -0.2980
vn 0.0682 0.7183 -0.6924
vn 0.5900 0.5800 -0.5617
vn 0.0704 0.6962 -0.7144
vn 0.1357 0.7183 -0.6823
vn 0.1400 0.6962 -0.7040
vn 0.2020 0.7183 -0.6658
vn 0.2084 0.6962 -0.6869
vn 0.2662 0.7183 -0.6428
vn 0.2747 0.6962 -0.6632
vn 0.3280 0.7183 -0.6136
vn 0.3384 0.6962 -0.6331
vn 0.3865 0.7183 -0.5785
vn 0.3988 0.6962 -0.5968
vn 0.4414 0.7183 -0.5378
vn 0.4554 0.6962 -0.5549
vn 0.4919 0.7183 -0.4919
vn 0.5076 0.6962 -0.5076
vn 0.5378 0.7183 -0.4414
vn 0.5549 0.6962 -0.4554
vn 0.5785 0.7183 -0.3865
vn 0.5968 0.6962 -0.3988
vn 0.6136 0.7183 -0.3280
vn 0.6331 0.6962 -0.3384
vn 0.6428 0.7183 -0.2662
vn 0.6632 0.6962 -0.2747
vn 0.6658 0.7183 -0.2020
vn 0.6869 0.6962 -0.2084
vn 0.6823 0.7183 -0.1357
vn 0.7040 0.6962 -0.1400
vn 0.6924 0.7183 -0.0682
vn 0.7144 0.6962 -0.0704
vn 0.5617 0.5800 -0.5900
vn -0.0704 0.6962 0.7144
vn -0.5900 0.5800 0.5617
vn -0.9097 0.2890 0.2980
vn -0.1400 0.6962 0.7040
vn -0.0682 0.7183 0.6924
vn -0.2084 0.6962 0.6869
vn -0.1357 0.7183 0.6823
vn -0.2747 0.6962 0.6632
vn -0.2020 0.7183 0.6658
vn -0.3384 0.6962 0.6331
vn -0.2662 0.7183 0.6428
vn -0.3988 0.6962 0.5968
vn -0.3280 0.7183 0.6136
vn -0.4554 0.6962 0.5549
vn -0.3865 0.7183 0.5785
vn -0.5076 0.6962 0.5076
vn -0.4414 0.7183 0.5378
vn -0.5549 0.6962 0.4554
vn -0.4919 0.7183 0.4919
vn -0.5968 0.6962 0.3988
vn -0.5378 0.7183 0.4414
vn -0.6331 0.6962 0.3384
vn -0.5785 0.7183 0.3865
vn -0.6632 0.6962 0.2747
vn -0.6136 0.7183 0.3280
vn -0.6869 0.6962 0.2084
vn -0.6428 0.7183 0.2662
vn -0.7040 0.6962 0.1400
vn -0.6658 0.7183 0.2020
vn -0.7144 0.6962 0.0704
vn -0.6823 0.7183 0.1357
vn -0.2980 0.2890 0.9097
vn -0.6924 0.7183 0.0682
vn 0.2980 0.2890 -0.9097
vn -0.5617 0.5800 0.5900
vt 0.375000 0.000000
vt 0.375000 1.000000
vt 0.125000 0.750000
vt 0.500000 0.625000
vt 0.000000 0.500000
vt 0.750000 0.490000
vt 0.625000 0.000000
vt 0.625000 1.000000
vt 0.875000 0.750000
vt 0.125000 0.500000
vt 0.375000 0.250000
vt 0.375000 0.750000
vt 0.375000 0.500000
vt 0.625000 0.500000
vt 0.500000 0.875000
vt 0.250000 0.500000
vt 0.510000 0.250000
vt 0.234375 0.500000
vt 0.511156 0.273524
vt 0.218750 0.500000
vt 0.514612 0.296822
vt 0.203125 0.500000
vt 0.520334 0.319668
vt 0.187500 0.500000
vt 0.528269 0.341844
vt 0.171875 0.500000
vt 0.538339 0.363135
vt 0.156250 0.500000
vt 0.550447 0.383337
vt 0.140625 0.500000
vt 0.564478 0.402254
vt 0.125000 0.500000
vt 0.580294 0.419706
vt 0.109375 0.500000
vt 0.597746 0.435522
vt 0.093750 0.500000
vt 0.616663 0.449553
vt 0.078125 0.500000
vt 0.636865 0.461661
vt 0.062500 0.500000
vt 0.658156 0.471731
vt 0.046875 0.500000
vt 0.680332 0.479666
vt 0.031250 0.500000
vt 0.703178 0.485388
vt 0.015625 0.500000
vt 0.726476 0.488844
vt 0.625000 0.625000
vt 0.000000 0.750000
vt 0.500000 0.750000
vt 0.750000 0.250000
vt 0.250000 0.750000
vt 0.625000 0.875000
vt 0.750000 0.750000
vt 0.749398 0.737748
vt 0.234375 0.750000
vt 0.744618 0.713714
vt 0.203125 0.750000
vt 0.747598 0.725614
vt 0.218750 0.750000
vt 0.721626 0.670701
vt 0.140625 0.750000
vt 0.740485 0.702165
vt 0.187500 0.750000
vt 0.735240 0.691075
vt 0.171875 0.750000
vt 0.728934 0.680554
vt 0.156250 0.750000
vt 0.713388 0.661612
vt 0.125000 0.750000
vt 0.704299 0.653374
vt 0.109375 0.750000
vt 0.637252 0.625602
vt 0.015625 0.750000
vt 0.649386 0.627402
vt 0.031250 0.750000
vt 0.661286 0.630382
vt 0.046875 0.750000
vt 0.694446 0.646066
vt 0.093750 0.750000
vt 0.683925 0.639760
vt 0.078125 0.750000
vt 0.672835 0.634515
vt 0.062500 0.750000
vt 0.484375 0.500000
vt 0.500000 0.375000
vt 0.750000 0.010000
vt 0.468750 0.500000
vt 0.484375 0.500000
vt 0.726476 0.011156
vt 0.453125 0.500000
vt 0.468750 0.500000
vt 0.703178 0.014612
vt 0.437500 0.500000
vt 0.453125 0.500000
vt 0.680332 0.020334
vt 0.421875 0.500000
vt 0.437500 0.500000
vt 0.658156 0.028269
vt 0.406250 0.500000
vt 0.421875 0.500000
vt 0.636865 0.038339
vt 0.390625 0.500000
vt 0.406250 0.500000
vt 0.616663 0.050447
vt 0.375000 0.500000
vt 0.390625 0.500000
vt 0.597746 0.064478
vt 0.359375 0.500000
vt 0.375000 0.500000
vt 0.580294 0.080294
vt 0.343750 0.500000
vt 0.359375 0.500000
vt 0.564478 0.097746
vt 0.328125 0.500000
vt 0.343750 0.500000
vt 0.550447 0.116663
vt 0.312500 0.500000
vt 0.328125 0.500000
vt 0.538339 0.136865
vt 0.296875 0.500000
vt 0.312500 0.500000
vt 0.528269 0.158156
vt 0.281250 0.500000
vt 0.296875 0.500000
vt 0.520334 0.180332
vt 0.265625 0.500000
vt 0.281250 0.500000
vt 0.514612 0.203178
vt 0.250000 0.500000
vt 0.265625 0.500000
vt 0.511156 0.226476
vt 0.500000 0.125000
vt 0.250000 0.500000
vt 0.510000 0.250000
vt 0.625000 0.125000
vt 0.875000 0.625000
vt 0.265625 0.750000
vt 0.500000 0.250000
vt 0.750000 0.250000
vt 0.625000 0.375000
vt 0.750000 0.500000
vt 0.500000 0.750000
vt 0.838714 0.619617
vt 0.312500 0.750000
vt 0.296875 0.750000
vt 0.850614 0.622598
vt 0.296875 0.750000
vt 0.281250 0.750000
vt 0.862748 0.624398
vt 0.281250 0.750000
vt 0.265625 0.750000
vt 0.795701 0.596626
vt 0.375000 0.750000
vt 0.359375 0.750000
vt 0.805554 0.603934
vt 0.359375 0.750000
vt 0.343750 0.750000
vt 0.816075 0.610240
vt 0.343750 0.750000
vt 0.328125 0.750000
vt 0.827165 0.615485
vt 0.328125 0.750000
vt 0.312500 0.750000
vt 0.778374 0.579299
vt 0.406250 0.750000
vt 0.390625 0.750000
vt 0.755382 0.536286
vt 0.468750 0.750000
vt 0.453125 0.750000
vt 0.750602 0.512252
vt 0.500000 0.750000
vt 0.484375 0.750000
vt 0.752402 0.524386
vt 0.484375 0.750000
vt 0.468750 0.750000
vt 0.786612 0.588388
vt 0.390625 0.750000
vt 0.375000 0.750000
vt 0.771066 0.569446
vt 0.421875 0.750000
vt 0.406250 0.750000
vt 0.764760 0.558925
vt 0.437500 0.750000
vt 0.421875 0.750000
vt 0.759515 0.547835
vt 0.453125 0.750000
vt 0.437500 0.750000
s 0
f 3/7/1 59/136/1 58/133/1
f 42/86/2 7/14/2 6/13/2
f 6/13/3 2/4/3 5/12/3
f 8/15/4 3/8/4 1/2/4
f 6/13/5 1/3/5 4/10/5
f 37/75/6 36/73/6 7/14/6
s 1
f 8/16/7 27/56/8 26/52/9
f 9/18/10 29/60/11 27/56/8
f 10/20/12 28/58/13 29/60/11
f 11/22/14 31/64/15 28/58/13
f 12/24/16 32/66/17 31/64/15
f 13/26/18 33/68/19 32/66/17
f 14/28/20 30/62/21 33/68/19
f 15/30/22 34/70/23 30/62/21
f 16/32/24 35/72/25 34/70/23
f 17/34/26 39/80/27 35/72/25
f 18/36/28 40/82/29 39/80/27
f 19/38/30 41/84/31 40/82/29
f 20/40/32 38/78/33 41/84/31
f 21/42/34 37/76/35 38/78/33
f 22/44/36 36/74/37 37/76/35
f 23/46/38 24/49/39 36/74/37
s 0
f 12/25/6 11/23/6 25/51/6
s 1
f 43/89/40 61/143/41 42/85/42
f 44/92/43 71/173/44 43/88/40
f 45/95/45 72/176/46 44/91/43
f 46/98/47 70/170/48 45/94/45
f 47/101/49 76/188/50 46/97/47
f 48/104/51 75/185/52 47/100/49
f 49/107/53 74/182/54 48/103/51
f 50/110/55 69/167/56 49/106/53
f 51/113/57 73/179/58 50/109/55
f 52/116/59 65/155/60 51/112/57
f 53/119/61 66/158/62 52/115/59
f 54/122/63 67/161/64 53/118/61
f 55/125/65 68/164/66 54/121/63
f 56/128/67 62/146/68 55/124/65
f 57/131/69 63/149/70 56/127/67
f 58/134/71 64/152/72 57/130/69
s 0
f 44/93/6 43/90/6 60/140/6
f 60/139/1 4/11/1 58/133/1
f 4/11/1 1/1/1 58/133/1
f 1/1/1 3/7/1 58/133/1
f 42/86/2 61/141/2 7/14/2
f 6/13/2 4/11/2 42/86/2
f 4/11/2 60/139/2 42/86/2
f 6/13/3 7/14/3 2/4/3
f 7/14/3 24/48/3 2/4/3
f 2/4/3 25/50/3 5/12/3
f 8/15/4 26/53/4 3/8/4
f 1/2/4 5/12/4 8/15/4
f 5/12/4 25/50/4 8/15/4
f 6/13/5 5/12/5 1/3/5
f 64/150/6 59/137/6 3/9/6
f 3/9/6 26/54/6 27/55/6
f 3/9/6 27/55/6 29/59/6
f 63/147/6 64/150/6 3/9/6
f 62/144/6 63/147/6 3/9/6
f 3/9/6 29/59/6 28/57/6
f 3/9/6 28/57/6 62/144/6
f 28/57/6 31/63/6 68/162/6
f 68/162/6 62/144/6 28/57/6
f 67/159/6 68/162/6 32/65/6
f 32/65/6 68/162/6 31/63/6
f 32/65/6 33/67/6 66/156/6
f 66/156/6 67/159/6 32/65/6
f 65/153/6 66/156/6 30/61/6
f 30/61/6 66/156/6 33/67/6
f 30/61/6 34/69/6 65/153/6
f 73/177/6 65/153/6 34/69/6
f 69/165/6 73/177/6 35/71/6
f 35/71/6 73/177/6 34/69/6
f 35/71/6 39/79/6 74/180/6
f 74/180/6 69/165/6 35/71/6
f 75/183/6 74/180/6 39/79/6
f 39/79/6 40/81/6 75/183/6
f 76/186/6 75/183/6 40/81/6
f 76/186/6 40/81/6 41/83/6
f 70/168/6 76/186/6 38/77/6
f 76/186/6 41/83/6 38/77/6
f 72/174/6 70/168/6 7/14/6
f 70/168/6 38/77/6 7/14/6
f 38/77/6 37/75/6 7/14/6
f 7/14/6 61/142/6 71/171/6
f 71/171/6 72/174/6 7/14/6
f 36/73/6 24/48/6 7/14/6
s 1
f 8/16/7 9/18/10 27/56/8
f 9/18/10 10/20/12 29/60/11
f 10/20/12 11/22/14 28/58/13
f 11/22/14 12/24/16 31/64/15
f 12/24/16 13/26/18 32/66/17
f 13/26/18 14/28/20 33/68/19
f 14/28/20 15/30/22 30/62/21
f 15/30/22 16/32/24 34/70/23
f 16/32/24 17/34/26 35/72/25
f 17/34/26 18/36/28 39/80/27
f 18/36/28 19/38/30 40/82/29
f 19/38/30 20/40/32 41/84/31
f 20/40/32 21/42/34 38/78/33
f 21/42/34 22/44/36 37/76/35
f 22/44/36 23/46/38 36/74/37
f 23/46/38 2/5/73 24/49/39
s 0
f 11/23/6 10/21/6 25/51/6
f 10/21/6 9/19/6 25/51/6
f 9/19/6 8/17/6 25/51/6
f 25/51/6 2/6/6 23/47/6
f 23/47/6 22/45/6 25/51/6
f 22/45/6 21/43/6 25/51/6
f 21/43/6 20/41/6 25/51/6
f 20/41/6 19/39/6 25/51/6
f 19/39/6 18/37/6 25/51/6
f 18/37/6 17/35/6 25/51/6
f 17/35/6 16/33/6 25/51/6
f 16/33/6 15/31/6 25/51/6
f 15/31/6 14/29/6 25/51/6
f 14/29/6 13/27/6 25/51/6
f 13/27/6 12/25/6 25/51/6
s 1
f 43/89/40 71/172/44 61/143/41
f 44/92/43 72/175/46 71/173/44
f 45/95/45 70/169/48 72/176/46
f 46/98/47 76/187/50 70/170/48
f 47/101/49 75/184/52 76/188/50
f 48/104/51 74/181/54 75/185/52
f 49/107/53 69/166/56 74/182/54
f 50/110/55 73/178/58 69/167/56
f 51/113/57 65/154/60 73/179/58
f 52/116/59 66/157/62 65/155/60
f 53/119/61 67/160/64 66/158/62
f 54/122/63 68/163/66 67/161/64
f 55/125/65 62/145/68 68/164/66
f 56/128/67 63/148/70 62/146/68
f 57/131/69 64/151/72 63/149/70
f 58/134/71 59/138/74 64/152/72
s 0
f 42/87/6 60/140/6 43/90/6
f 60/140/6 58/135/6 57/132/6
f 56/129/6 60/140/6 57/132/6
f 56/129/6 55/126/6 60/140/6
f 55/126/6 54/123/6 60/140/6
f 54/123/6 53/120/6 60/140/6
f 53/120/6 52/117/6 60/140/6
f 52/117/6 51/114/6 60/140/6
f 51/114/6 50/111/6 60/140/6
f 50/111/6 49/108/6 60/140/6
f 49/108/6 48/105/6 60/140/6
f 48/105/6 47/102/6 60/140/6
f 47/102/6 46/99/6 60/140/6
f 46/99/6 45/96/6 60/140/6
f 45/96/6 44/93/6 60/140/6
